<svg xmlns="http://www.w3.org/2000/svg" width="32.367" height="32.367" viewBox="0 0 32.367 32.367">
  <path id="WTF" d="M16.183,0A16.183,16.183,0,1,0,32.367,16.183,16.184,16.184,0,0,0,16.183,0ZM22.75,23.82a1.217,1.217,0,0,1-.685-.241,16.244,16.244,0,0,0-8.374-2.164,25.332,25.332,0,0,0-5.1.561,5.007,5.007,0,0,1-.8.161,1.011,1.011,0,0,1-1.024-1.017,1.032,1.032,0,0,1,.88-1.111,27.034,27.034,0,0,1,6.057-.715,18,18,0,0,1,9.413,2.44,1.076,1.076,0,0,1,.641,1.075A1.01,1.01,0,0,1,22.75,23.82Zm1.762-4.284a1.484,1.484,0,0,1-.809-.281,20.534,20.534,0,0,0-10.276-2.6,20.5,20.5,0,0,0-5.282.676,2.739,2.739,0,0,1-.787.18,1.267,1.267,0,0,1-1.264-1.27A1.287,1.287,0,0,1,7.1,14.892a22.362,22.362,0,0,1,6.381-.885A22.757,22.757,0,0,1,25.035,16.99a1.322,1.322,0,0,1,.74,1.28A1.261,1.261,0,0,1,24.511,19.536Zm2.008-4.981a1.531,1.531,0,0,1-.832-.248c-2.929-1.756-7.477-2.723-11.872-2.723a24.993,24.993,0,0,0-6.465.777,3.382,3.382,0,0,1-.83.177A1.517,1.517,0,0,1,5,10.991,1.534,1.534,0,0,1,6.128,9.444a27.215,27.215,0,0,1,7.681-1c4.751,0,9.752.977,13.4,3.123a1.533,1.533,0,0,1,.834,1.468A1.509,1.509,0,0,1,26.519,14.554Z" fill="#38524f"/>
</svg>
