<svg xmlns="http://www.w3.org/2000/svg" width="41.468" height="65.155" viewBox="0 0 41.468 65.155">
  <path id="Union_1" data-name="Union 1" d="M2155-2760.266A20.734,20.734,0,0,1,2175.734-2781a20.734,20.734,0,0,1,20.734,20.734c0,11.451-20.734,44.42-20.734,44.42S2155-2748.815,2155-2760.266Zm13.248-17.723a19.162,19.162,0,0,0-6.114,4.122,19.157,19.157,0,0,0-4.123,6.115,19.11,19.11,0,0,0-1.511,7.486c0,3.092,1.767,10.075,10.182,25.781,3.581,6.685,7.2,12.74,9.052,15.781,1.854-3.041,5.471-9.1,9.052-15.781,8.415-15.707,10.182-22.69,10.182-25.781a19.106,19.106,0,0,0-1.511-7.486,19.166,19.166,0,0,0-4.122-6.115,19.178,19.178,0,0,0-6.115-4.122,19.114,19.114,0,0,0-7.486-1.511A19.115,19.115,0,0,0,2168.248-2777.989Zm-2.271,17.723a9.757,9.757,0,0,1,9.757-9.757,9.757,9.757,0,0,1,9.757,9.757,9.757,9.757,0,0,1-9.757,9.757A9.757,9.757,0,0,1,2165.977-2760.266Zm1.5,0a8.265,8.265,0,0,0,8.257,8.257,8.266,8.266,0,0,0,8.258-8.257,8.267,8.267,0,0,0-8.258-8.258A8.266,8.266,0,0,0,2167.477-2760.266Z" transform="translate(-2155 2781)" fill="#98ab78"/>
</svg>
