<svg id="iconfinder_038_011_instagram_mobile_photo_network_android_material_1646917" xmlns="http://www.w3.org/2000/svg" width="19.871" height="19.871" viewBox="0 0 19.871 19.871">
  <path id="Tracé_77" data-name="Tracé 77" d="M16.8,3H9.072A6.072,6.072,0,0,0,3,9.072V16.8a6.072,6.072,0,0,0,6.072,6.072H16.8A6.072,6.072,0,0,0,22.871,16.8V9.072A6.072,6.072,0,0,0,16.8,3Zm4.416,13.8A4.421,4.421,0,0,1,16.8,21.215H9.072A4.421,4.421,0,0,1,4.656,16.8V9.072A4.421,4.421,0,0,1,9.072,4.656H16.8a4.421,4.421,0,0,1,4.416,4.416Z" transform="translate(-3 -3)" fill="#f7f5f2"/>
  <path id="Tracé_78" data-name="Tracé 78" d="M12.468,7.5a4.968,4.968,0,1,0,4.968,4.968A4.968,4.968,0,0,0,12.468,7.5Zm0,8.28a3.312,3.312,0,1,1,3.312-3.312,3.312,3.312,0,0,1-3.312,3.312Z" transform="translate(-2.532 -2.532)" fill="#f7f5f2"/>
  <ellipse id="Ellipse_1" data-name="Ellipse 1" cx="1.104" cy="1.104" rx="1.104" ry="1.104" transform="translate(14.02 3.643)" fill="#f7f5f2"/>
</svg>
