<svg xmlns="http://www.w3.org/2000/svg" width="84.76" height="25.031" viewBox="0 0 84.76 25.031">
  <path id="Tracé_118" data-name="Tracé 118" d="M1784.439,95.761h-59.728a12.516,12.516,0,1,0,0,25.031h59.728a12.516,12.516,0,1,0,0-25.031ZM1781.2,97.3l-10.146,10.147L1775.51,97.3Zm-19.866,0-10.14,10.148,4.454-10.148Zm-19.857,0-10.153,10.152,4.456-10.152Zm42.968,21.959h-59.728a10.98,10.98,0,1,1,0-21.959h9.386l-5.826,13.274,1.246.852L1743.644,97.3h10.321l-5.826,13.274,1.246.851L1763.5,97.3h10.333L1768,110.571l1.246.852L1783.368,97.3h1.072a10.98,10.98,0,1,1,0,21.959Z" transform="translate(-1712.195 -95.762)" fill="#98ab78"/>
</svg>
