<svg id="Groupe_82" data-name="Groupe 82" xmlns="http://www.w3.org/2000/svg" width="67.757" height="53.375" viewBox="0 0 67.757 53.375">
  <path id="Tracé_120" data-name="Tracé 120" d="M2415.352,88.676l-33.878,14.757v23.861l33.878,14.757,33.879-14.757V103.433Zm.011,29.054-14.878-6.48,31.422-13.687,14.878,6.48Zm14.621-21-31.423,13.687-14.632-6.374,31.422-13.687Zm-46.975,8.588,15.019,6.542v9.935l1.536.7v-9.964l15.031,6.547-.01,20.97-31.575-13.754Zm33.111,34.728.01-20.969,31.564-13.749v20.965Z" transform="translate(-2381.474 -88.676)" fill="#98ab78"/>
  <path id="Tracé_121" data-name="Tracé 121" d="M2459.8,166.46l12-5.227v-8.907l-12.006,5.3Zm10.466-11.776v5.542l-8.931,3.89,0-5.485Z" transform="translate(-2421.215 -120.971)" fill="#98ab78"/>
</svg>
