<svg xmlns="http://www.w3.org/2000/svg" width="20" height="18.333" viewBox="0 0 20 18.333">
  <path id="iconfinder_shopping_bag_2639752" d="M22.961,20.313,21.333,5.667A1.666,1.666,0,0,0,19.667,4H6.333A1.666,1.666,0,0,0,4.667,5.667L3.039,20.313A1.7,1.7,0,0,0,3,20.667a1.666,1.666,0,0,0,1.667,1.667H21.333A1.666,1.666,0,0,0,23,20.667,1.7,1.7,0,0,0,22.961,20.313ZM17.167,8.09V9A4.167,4.167,0,1,1,8.833,9V8.09A1.248,1.248,0,1,1,10.5,6.917V9a2.5,2.5,0,1,0,5,0V6.917A1.25,1.25,0,1,1,17.167,8.09Z" transform="translate(-3 -4)" fill="#f2eee9"/>
</svg>
