<svg xmlns="http://www.w3.org/2000/svg" width="30.674" height="85.287" viewBox="0 0 30.674 85.287">
  <path id="Tracé_122" data-name="Tracé 122" d="M2033.162,106.246a55.777,55.777,0,0,0-14.768-37.692l-.566-.619-.567.619a55.467,55.467,0,0,0-.2,75.16v9.509h1.535v-9.5A55.768,55.768,0,0,0,2033.162,106.246ZM2018.593,71.1a54.659,54.659,0,0,1,11.079,20.808l-11.079,11.079Zm-1.535,31.883L2005.98,91.907a54.623,54.623,0,0,1,11.078-20.8Zm1.535,21.337,0,0,12.762-12.757a54.318,54.318,0,0,1-12.766,29.828Zm12.948-15.108-12.948,12.944v-17l11.525-11.526a53.563,53.563,0,0,1,1.509,12.611C2031.627,107.238,2031.6,108.227,2031.541,109.213Zm-26.009-15.581,11.525,11.524v17l-12.948-12.948c-.055-.985-.086-1.973-.086-2.964A53.577,53.577,0,0,1,2005.532,93.632Zm-1.241,17.931,12.761,12.761.005,0v17.069A54.293,54.293,0,0,1,2004.291,111.564Z" transform="translate(-2002.488 -67.936)" fill="#98ab78"/>
</svg>
