<svg xmlns="http://www.w3.org/2000/svg" width="15.383" height="19.871" viewBox="0 0 15.383 19.871">
  <path id="iconfinder_33-pinterest_104469" d="M18.095,4.622c-5.423,0-8.158,3.888-8.158,7.13,0,1.963.743,3.709,2.337,4.36a.393.393,0,0,0,.572-.285c.053-.2.178-.7.233-.916a.554.554,0,0,0-.164-.636,3.29,3.29,0,0,1-.754-2.238A5.406,5.406,0,0,1,17.78,6.57c3.065,0,4.749,1.873,4.749,4.374,0,3.291-1.457,6.069-3.618,6.069a1.767,1.767,0,0,1-1.8-2.2,24.494,24.494,0,0,0,1.007-4.051A1.528,1.528,0,0,0,16.578,9.05c-1.221,0-2.2,1.263-2.2,2.954a4.392,4.392,0,0,0,.364,1.806s-1.249,5.293-1.468,6.22a12.8,12.8,0,0,0-.034,4.337.152.152,0,0,0,.271.066A12.185,12.185,0,0,0,15.57,20.7c.14-.507.8-3.137.8-3.137a3.271,3.271,0,0,0,2.788,1.422c3.669,0,6.158-3.345,6.158-7.821C25.32,7.775,22.452,4.622,18.095,4.622Z" transform="translate(-9.937 -4.622)" fill="#f7f5f2"/>
</svg>
