<svg xmlns="http://www.w3.org/2000/svg" width="63.051" height="85.49" viewBox="0 0 63.051 85.49">
  <path id="Tracé_119" data-name="Tracé 119" d="M2252.581,61.025a31.526,31.526,0,1,0-32.293,31.506v22.46h1.536V92.532A31.556,31.556,0,0,0,2252.581,61.025ZM2221.823,91V82.5l17.3-17.006-1.086-1.086-7.876,7.579-5.9-5.9-1.086,1.086,5.9,5.9-8.023,8.023-11.774-11.775,13.457-13.458-1.086-1.086-13.458,13.458-4.652-4.633-1.086,1.086L2220.288,82.5V91a29.99,29.99,0,1,1,1.536,0Z" transform="translate(-2189.53 -29.5)" fill="#98ab78"/>
</svg>
