<svg xmlns="http://www.w3.org/2000/svg" width="19.871" height="19.871" viewBox="0 0 19.871 19.871">
  <path id="WTF" d="M9.936,0a9.936,9.936,0,1,0,9.936,9.936A9.936,9.936,0,0,0,9.936,0Zm4.031,14.624a.747.747,0,0,1-.421-.148A9.973,9.973,0,0,0,8.4,13.147a15.553,15.553,0,0,0-3.134.344,3.074,3.074,0,0,1-.489.1.62.62,0,0,1-.629-.625.634.634,0,0,1,.54-.682,16.6,16.6,0,0,1,3.719-.439,11.049,11.049,0,0,1,5.779,1.5.66.66,0,0,1,.393.66A.62.62,0,0,1,13.967,14.624Zm1.082-2.63a.911.911,0,0,1-.5-.172,12.607,12.607,0,0,0-6.309-1.6A12.583,12.583,0,0,0,5,10.641a1.682,1.682,0,0,1-.483.111.778.778,0,0,1-.776-.78.79.79,0,0,1,.618-.829A13.729,13.729,0,0,1,8.276,8.6a13.971,13.971,0,0,1,7.094,1.831.812.812,0,0,1,.454.786A.774.774,0,0,1,15.048,11.993Zm1.233-3.058a.94.94,0,0,1-.511-.152A15.061,15.061,0,0,0,8.482,7.111a15.344,15.344,0,0,0-3.969.477A2.076,2.076,0,0,1,4,7.7a.931.931,0,0,1-.937-.949.942.942,0,0,1,.7-.95,16.708,16.708,0,0,1,4.715-.612A16.824,16.824,0,0,1,16.707,7.1a.941.941,0,0,1,.512.9A.927.927,0,0,1,16.281,8.935Z" fill="#f7f5f2"/>
</svg>
