<svg id="iconfinder_038_011_instagram_mobile_photo_network_android_material_1646917" xmlns="http://www.w3.org/2000/svg" width="32.367" height="32.367" viewBox="0 0 32.367 32.367">
  <path id="Tracé_77" data-name="Tracé 77" d="M25.477,3H12.89A9.89,9.89,0,0,0,3,12.89V25.477a9.89,9.89,0,0,0,9.89,9.89H25.477a9.89,9.89,0,0,0,9.89-9.89V12.89A9.89,9.89,0,0,0,25.477,3ZM32.67,25.477a7.2,7.2,0,0,1-7.193,7.193H12.89A7.2,7.2,0,0,1,5.7,25.477V12.89A7.2,7.2,0,0,1,12.89,5.7H25.477A7.2,7.2,0,0,1,32.67,12.89Z" transform="translate(-3 -3)" fill="#38524f"/>
  <path id="Tracé_78" data-name="Tracé 78" d="M15.592,7.5a8.092,8.092,0,1,0,8.092,8.092A8.092,8.092,0,0,0,15.592,7.5Zm0,13.486a5.394,5.394,0,1,1,5.394-5.394,5.394,5.394,0,0,1-5.394,5.394Z" transform="translate(0.592 0.592)" fill="#38524f"/>
  <circle id="Ellipse_1" data-name="Ellipse 1" cx="1.798" cy="1.798" r="1.798" transform="translate(22.837 5.934)" fill="#38524f"/>
</svg>
