<svg xmlns="http://www.w3.org/2000/svg" width="25.056" height="32.367" viewBox="0 0 25.056 32.367">
  <path id="iconfinder_33-pinterest_104469" d="M23.224,4.622c-8.833,0-13.287,6.333-13.287,11.614,0,3.2,1.211,6.042,3.807,7.1a.639.639,0,0,0,.931-.465c.086-.325.289-1.148.38-1.492a.9.9,0,0,0-.268-1.036A5.359,5.359,0,0,1,13.559,16.7a8.805,8.805,0,0,1,9.154-8.9c4.993,0,7.736,3.051,7.736,7.124,0,5.361-2.372,9.886-5.894,9.886a2.878,2.878,0,0,1-2.935-3.581c.558-2.356,1.641-4.9,1.641-6.6a2.489,2.489,0,0,0-2.507-2.79c-1.988,0-3.586,2.057-3.586,4.812a7.153,7.153,0,0,0,.593,2.942S15.727,28.21,15.37,29.719a20.854,20.854,0,0,0-.055,7.064.248.248,0,0,0,.442.108,19.847,19.847,0,0,0,3.356-6.085c.228-.826,1.307-5.11,1.307-5.11a5.328,5.328,0,0,0,4.542,2.316c5.976,0,10.031-5.448,10.031-12.74C34.993,9.758,30.323,4.622,23.224,4.622Z" transform="translate(-9.937 -4.622)" fill="#38524f"/>
</svg>
