<svg id="Calque_2" data-name="Calque 2" xmlns="http://www.w3.org/2000/svg" width="209.121" height="184.75" viewBox="0 0 209.121 184.75">
  <g id="_01" data-name="01">
    <path id="Tracé_80" data-name="Tracé 80" d="M128.178,0A40.468,40.468,0,0,0,87.71,40.468V95.5a40.468,40.468,0,1,0,80.935,0V40.468A40.468,40.468,0,0,0,128.178,0Zm37.215,95.5a37.23,37.23,0,0,1-74.46,0V40.468a37.23,37.23,0,1,1,74.46,0Z" transform="translate(-23.606)" fill="#f7f5f2"/>
    <path id="Tracé_81" data-name="Tracé 81" d="M152.8,17.148c-.409-.358-.833-.731-1.257-1.038s-.862-.665-1.308-.979l-.672-.468a34.044,34.044,0,0,0-8.9-4.239c-1.06-.329-2.149-.614-3.252-.84-.555-.11-1.111-.212-1.674-.292l-.855-.161c-.855-.1-1.71-.183-2.58-.227-.585,0-1.162-.044-1.754-.044a33.926,33.926,0,0,0-15.465,3.757l-.731.38a31.462,31.462,0,0,0-2.8,1.7c-.227.153-.453.307-.672.468a35.039,35.039,0,0,0-3.771,3.077c-.387.38-.775.731-1.147,1.155s-.731.8-1.1,1.206a34.846,34.846,0,0,0-3.362,4.619c-.285.468-.563.943-.819,1.462-.395.731-.731,1.462-1.1,2.193A33.517,33.517,0,0,0,97.6,34.36c-.073.27-.139.541-.2.819a34.022,34.022,0,0,0-.87,7.674h0V97.886a33.989,33.989,0,1,0,67.977,0L164.5,42.852a33.788,33.788,0,0,0-6.234-19.675c-.314-.446-.643-.884-.979-1.308s-.68-.848-1.038-1.264A33.561,33.561,0,0,0,152.8,17.148Zm-39.466,55a61.071,61.071,0,0,0,6.746,20.866H99.8V57.338A34.16,34.16,0,0,0,113.3,72.145Zm-9.881,40.314h16.159l1.411,1.009,1.126,2.193H105.476A31.426,31.426,0,0,1,103.451,112.459ZM99.8,98.251l6.271,4.495h-5.891a30.4,30.4,0,0,1-.38-4.495Zm10.787,7.732,4.517,3.238H101.99a30.546,30.546,0,0,1-1.074-3.238ZM122.366,112.32Zm.219-1.951-10.532-7.542v-.08h-.117L102.9,96.271h52.68Zm6.351-17.358h-5.153a57.848,57.848,0,0,1-6.929-19.068q-.329-1.893-.541-3.852v-.4l12.658,12.658Zm8.31,0h-5.072V82.048L144.818,69.4a7.061,7.061,0,0,1-.073.731c-.139,1.3-.322,2.58-.548,3.852a57.781,57.781,0,0,1-6.95,19.024Zm-5.072-15.567V59.794l10.963-10.963a58.162,58.162,0,0,1,1.973,15.026v.687Zm0-22.233V27.292h0a58.315,58.315,0,0,1,9.9,18.023Zm-3.238.358L118.931,45.564a58.11,58.11,0,0,1,10.005-18.271Zm-12.951,8.324a58.183,58.183,0,0,1,1.9-14.8l11.051,11.029v17.65L116,64.836C115.993,64.508,115.985,64.215,115.985,63.894Zm-7.857,55.041H123.8l1.63,3.238h-13.7A31.254,31.254,0,0,1,108.129,118.935Zm20.537,9.647a30.564,30.564,0,0,1-11.855-3.179h10.232Zm3.83,0-7.769-15.4L161.269,97.55v.344A30.747,30.747,0,0,1,132.5,128.575Zm28.81-35.571H140.959a61.056,61.056,0,0,0,6.8-20.859,34.124,34.124,0,0,0,13.55-14.836Zm-4.451-66.128a30.769,30.769,0,0,1-8.683,41.155c.1-1.389.146-2.792.146-4.2a61.26,61.26,0,0,0-15.553-40.87l-.592-.65h0c-.526-.577-1.06-1.14-1.608-1.688-.548.548-1.082,1.111-1.608,1.688h0l-.614.672A61.29,61.29,0,0,0,112.77,63.916c0,1.389.051,2.77.139,4.137a30.762,30.762,0,0,1,9.245-54.763l.731-.2a30.842,30.842,0,0,1,4.539-.8,29.863,29.863,0,0,1,3.143-.161,30.36,30.36,0,0,1,5.445.482c.5.088,1.009.19,1.506.307q1.1.252,2.193.592a29.608,29.608,0,0,1,2.821,1.038c.46.19.914.395,1.367.614.892.431,1.769.906,2.609,1.418.636.387,1.257.8,1.856,1.221.4.285.8.585,1.184.884a30.248,30.248,0,0,1,3.779,3.523c.329.358.658.731.965,1.111.161.19.314.387.468.577.3.387.6.782.884,1.184.431.577.826,1.2,1.213,1.834Z" transform="translate(-25.98 -2.385)" fill="#f7f5f2"/>
    <path id="Tracé_82" data-name="Tracé 82" d="M18.827,219.875q0,1.922.11,3.135H18.06a23.474,23.474,0,0,0-.767-4.385,3.581,3.581,0,0,0-1.608-2.1,7.17,7.17,0,0,0-3.515-.672H9.757a6.966,6.966,0,0,0-2.01.212,1.323,1.323,0,0,0-.862.862,6.9,6.9,0,0,0-.227,2.1v9.421H9.45a2.917,2.917,0,0,0,3.04-2.1,13.411,13.411,0,0,0,.4-2.193l.117-.731h.877c-.073,1.067-.117,2.266-.117,3.6v1.834q0,1.951.234,5.43h-.848c0-.175-.1-.8-.234-1.849a3.757,3.757,0,0,0-1.052-2.4,3.362,3.362,0,0,0-2.39-.8H6.658v8.77a5.262,5.262,0,0,0,.307,2.1A1.615,1.615,0,0,0,8.039,241a11.29,11.29,0,0,0,2.492.307v.731c-1.33-.073-3.2-.11-5.628-.11q-3.289,0-4.9.11V241.3A7.616,7.616,0,0,0,2.017,241a1.389,1.389,0,0,0,.862-.884,6.9,6.9,0,0,0,.227-2.1v-19a6.9,6.9,0,0,0-.227-2.1,1.389,1.389,0,0,0-.862-.877A7.614,7.614,0,0,0,0,215.731V215q3.749.11,11.094.117c3.749,0,6.417-.044,8-.117Q18.827,217.7,18.827,219.875Z" transform="translate(0 -57.865)" fill="#f7f5f2"/>
    <path id="Tracé_83" data-name="Tracé 83" d="M34.721,238.394a2.865,2.865,0,0,0,.65,2.193,3.348,3.348,0,0,0,2.258.592v.753q-3.523-.153-4.626-.153t-4.634.153v-.8a3.347,3.347,0,0,0,2.258-.592,2.865,2.865,0,0,0,.65-2.193V219.18a4.108,4.108,0,0,0-.65-2.565,2.755,2.755,0,0,0-2.258-.8v-.8c.789.073,1.586.11,2.375.11a12.424,12.424,0,0,0,3.976-.534Z" transform="translate(-7.636 -57.755)" fill="#f7f5f2"/>
    <path id="Tracé_84" data-name="Tracé 84" d="M81.549,224.768a5.584,5.584,0,0,1,1.761.994,1.286,1.286,0,0,0,.687.307c.46,0,.731-.563.84-1.688h.884q-.219,1.908-.219,6.5h-.855a9.582,9.582,0,0,0-1.623-4.166,4.151,4.151,0,0,0-3.581-1.644,3.238,3.238,0,0,0-2.251.782,2.726,2.726,0,0,0-.884,2.193,3,3,0,0,0,.921,2.236,18.417,18.417,0,0,0,2.923,2.193c.227.124.57.344,1.031.65a32.108,32.108,0,0,1,2.858,1.966,7.624,7.624,0,0,1,1.739,2.025,5.175,5.175,0,0,1,.665,2.646,4.634,4.634,0,0,1-1.893,3.939,7.528,7.528,0,0,1-4.648,1.418,7.835,7.835,0,0,1-3.018-.541,7.668,7.668,0,0,1-1.571-1.031.482.482,0,0,0-.344-.154c-.175,0-.336.132-.475.38a3.406,3.406,0,0,0-.329,1.074H73.29q.153-2.193.153-7.652h.877a13.309,13.309,0,0,0,1.527,5.372,4.1,4.1,0,0,0,3.793,1.783,3.515,3.515,0,0,0,2.368-.884,3.413,3.413,0,0,0,1.038-2.748,3.479,3.479,0,0,0-1.016-2.529,19.508,19.508,0,0,0-3.311-2.485q-1.871-1.184-2.923-1.951a6.768,6.768,0,0,1-1.7-1.878,4.816,4.816,0,0,1-.687-2.6,4.385,4.385,0,0,1,1.6-3.654,6.388,6.388,0,0,1,4.056-1.264,6.534,6.534,0,0,1,2.485.409Z" transform="translate(-19.725 -60.383)" fill="#f7f5f2"/>
    <path id="Tracé_85" data-name="Tracé 85" d="M139.253,215.622a4.751,4.751,0,0,1,1.586,3.764,5.262,5.262,0,0,1-.994,3.2,7.06,7.06,0,0,1-2.638,2.156,50.924,50.924,0,0,1-5.664,2,6.519,6.519,0,0,1,3.157,2.616,7.477,7.477,0,0,1,1.016,3.881,7.893,7.893,0,0,1-1.418,4.48,10.005,10.005,0,0,1-4.056,3.384,14.046,14.046,0,0,1-6.2,1.286,16.158,16.158,0,0,1-6.176-1.169,10.743,10.743,0,0,1-4.539-3.333,7.959,7.959,0,0,1-1.681-5.028,7.185,7.185,0,0,1,1.242-4.268,8.822,8.822,0,0,1,2.85-2.638,12.621,12.621,0,0,1,2.982-1.242,6.753,6.753,0,0,1-2.865-2.141,4.612,4.612,0,0,1-.994-2.792,4.086,4.086,0,0,1,.731-2.353,5.182,5.182,0,0,1,2.193-1.761,8.426,8.426,0,0,1,3.5-.672,6.161,6.161,0,0,1,3.983,1.155,4.225,4.225,0,0,1,1.052,1.279,2.923,2.923,0,0,1,.358,1.359,1.82,1.82,0,0,1-.65,1.462,2.193,2.193,0,0,1-1.462.555,2.032,2.032,0,0,1-1.4-.519,1.747,1.747,0,0,1-.592-1.4,1.973,1.973,0,0,1,.577-1.462,2.193,2.193,0,0,1,1.462-.672,1.739,1.739,0,0,0-.972-.855,4.612,4.612,0,0,0-1.929-.365,4.385,4.385,0,0,0-3.216,1.206,4.48,4.48,0,0,0-1.228,3.347,5.715,5.715,0,0,0,1.951,4.385,14.264,14.264,0,0,1,2.375-.234,2.324,2.324,0,0,1,1.111.234.731.731,0,0,1,.417.65.607.607,0,0,1-.285.534,1.462,1.462,0,0,1-.782.19,3.764,3.764,0,0,1-1.264-.227c-.431-.153-.943-.358-1.527-.614q-4.977,1.462-4.977,6.271a7.455,7.455,0,0,0,1.337,4.444,8.346,8.346,0,0,0,3.654,2.85,13.469,13.469,0,0,0,5.24.972,14.215,14.215,0,0,0,5.028-.862,8.683,8.683,0,0,0,3.654-2.448,5.489,5.489,0,0,0,1.359-3.691,6.8,6.8,0,0,0-.8-3.1,5.445,5.445,0,0,0-3.062-2.448q-2.982.921-4.385,1.462a8.039,8.039,0,0,0-2.485,1.4,2.485,2.485,0,0,0-.884,1.937,2.638,2.638,0,0,0,1.133,2.193,3.925,3.925,0,0,0,2.39.84,4.963,4.963,0,0,0,1.418-.227c.5-.154.8-.358.877-.614a2.806,2.806,0,0,1-1.264-.614,1.644,1.644,0,0,1-.534-1.337,1.864,1.864,0,0,1,.592-1.462,2.192,2.192,0,0,1,1.513-.534,1.944,1.944,0,0,1,1.462.57,2.068,2.068,0,0,1,.555,1.5,2.7,2.7,0,0,1-1.411,2.4,5.8,5.8,0,0,1-3.143.884,5.175,5.175,0,0,1-3.3-1.133,3.983,3.983,0,0,1-1.462-3.347,4.561,4.561,0,0,1,1.323-3.3,10.056,10.056,0,0,1,3.961-2.28l2.711-.8c1.535-.431,2.806-.811,3.83-1.147a26.955,26.955,0,0,0,2.792-1.067,7.309,7.309,0,0,0,2.565-1.725,2.989,2.989,0,0,0,.731-1.951,3.472,3.472,0,0,0-1.316-2.733,4.663,4.663,0,0,0-3.077-1.111c-.636,0-1.023.117-1.147.344a1.688,1.688,0,0,1,.782.731,2.091,2.091,0,0,1,.292,1.009,1.674,1.674,0,0,1-.636,1.338,2.244,2.244,0,0,1-1.513.541,2.192,2.192,0,0,1-1.411-.5,1.725,1.725,0,0,1-.614-1.418,2.1,2.1,0,0,1,1.279-2.01,6.614,6.614,0,0,1,2.923-.629A5.847,5.847,0,0,1,139.253,215.622Z" transform="translate(-30.048 -57.646)" fill="#f7f5f2"/>
    <path id="Tracé_86" data-name="Tracé 86" d="M179.668,215.731a7.667,7.667,0,0,0-2.01.307,1.381,1.381,0,0,0-.855.877,6.849,6.849,0,0,0-.234,2.1v19a6.849,6.849,0,0,0,.234,2.1,1.308,1.308,0,0,0,.855.862,7,7,0,0,0,2.01.212h2.792a7.791,7.791,0,0,0,3.654-.672,3.968,3.968,0,0,0,1.82-2.193,17.439,17.439,0,0,0,.84-4.319h.877q-.11,1.184-.11,3.135,0,2.193.263,4.9-2.6-.11-8.77-.11-7.345,0-11.094.11v-.731a7.564,7.564,0,0,0,2.01-.307,1.367,1.367,0,0,0,.862-.884,6.9,6.9,0,0,0,.227-2.1v-19a6.9,6.9,0,0,0-.227-2.1,1.374,1.374,0,0,0-.862-.877,7.565,7.565,0,0,0-2.01-.307V215c1.074.073,2.7.117,4.9.117,2.046,0,3.654-.044,4.86-.117Z" transform="translate(-45.738 -57.865)" fill="#f7f5f2"/>
    <path id="Tracé_87" data-name="Tracé 87" d="M216.428,240.491a4.107,4.107,0,0,0,.65,2.565,2.77,2.77,0,0,0,2.258.8v.8q-1.184-.11-2.368-.11a12.5,12.5,0,0,0-3.983.534v-4.517a7.023,7.023,0,0,1-2.6,3.486,6.578,6.578,0,0,1-3.654,1.111,5.247,5.247,0,0,1-3.983-1.462,4.385,4.385,0,0,1-.972-1.951,13.435,13.435,0,0,1-.292-3.062v-9.6a4.049,4.049,0,0,0-.65-2.565,2.748,2.748,0,0,0-2.251-.8v-.8a23.376,23.376,0,0,0,2.368.117,12.526,12.526,0,0,0,3.983-.534v15.034a12.811,12.811,0,0,0,.168,2.353,2.609,2.609,0,0,0,.8,1.462,2.814,2.814,0,0,0,1.929.57,4.224,4.224,0,0,0,2.646-.921,6.044,6.044,0,0,0,1.849-2.5A8.821,8.821,0,0,0,213,237V229.09a4.093,4.093,0,0,0-.65-2.565,2.755,2.755,0,0,0-2.258-.8v-.8a23.5,23.5,0,0,0,2.375.117,12.425,12.425,0,0,0,3.976-.534Z" transform="translate(-53.446 -60.422)" fill="#f7f5f2"/>
    <path id="Tracé_88" data-name="Tracé 88" d="M247.319,225.789a4.312,4.312,0,0,1,1.06,1.951,12.424,12.424,0,0,1,.307,3.1v10.232a2.836,2.836,0,0,0,.65,2.193,3.348,3.348,0,0,0,2.258.592v.694c-2.353-.1-3.881-.153-4.6-.153s-2.141.051-4.283.153v-.8a2.653,2.653,0,0,0,1.973-.592,3.208,3.208,0,0,0,.555-2.193V229.933a6.987,6.987,0,0,0-.614-3.274,2.613,2.613,0,0,0-2.485-1.126,4.524,4.524,0,0,0-2.8.914,5.97,5.97,0,0,0-1.929,2.536,9.025,9.025,0,0,0-.665,3.537v8.493a3.172,3.172,0,0,0,.555,2.193,2.624,2.624,0,0,0,1.966.592v.753q-3.216-.153-4.283-.153t-4.59.153v-.8a3.377,3.377,0,0,0,2.258-.592,2.865,2.865,0,0,0,.65-2.193v-11.92a4.093,4.093,0,0,0-.65-2.565,2.777,2.777,0,0,0-2.258-.8v-.8c.811.08,1.608.117,2.368.117a12.5,12.5,0,0,0,3.983-.534v4.509a6.578,6.578,0,0,1,6.5-4.626A5.3,5.3,0,0,1,247.319,225.789Z" transform="translate(-62.01 -60.373)" fill="#f7f5f2"/>
    <path id="Tracé_89" data-name="Tracé 89" d="M263.356,243.642a4.6,4.6,0,0,1-1.169-3.347,4.247,4.247,0,0,1,.936-2.828,6.994,6.994,0,0,1,2.193-1.761,28.787,28.787,0,0,1,3.384-1.381,17.5,17.5,0,0,0,3.179-1.337,1.856,1.856,0,0,0,1.03-1.644v-2.375a3.978,3.978,0,0,0-.935-3.04,3.852,3.852,0,0,0-2.624-.819,4.61,4.61,0,0,0-3.786,1.374,2.4,2.4,0,0,1,1.279.8,2.31,2.31,0,0,1,.519,1.535,1.922,1.922,0,0,1-.614,1.506,2.193,2.193,0,0,1-1.564.555,1.937,1.937,0,0,1-1.608-.665,2.814,2.814,0,0,1-.1-3.157,5.408,5.408,0,0,1,1.316-1.228,7.9,7.9,0,0,1,2.339-1.067,10.665,10.665,0,0,1,3.1-.424,6.409,6.409,0,0,1,4.509,1.418,4.3,4.3,0,0,1,1.286,2.119,13.669,13.669,0,0,1,.322,3.274v10.634a2.653,2.653,0,0,0,.27,1.381.994.994,0,0,0,.914.417,1.754,1.754,0,0,0,.862-.212,4.809,4.809,0,0,0,.862-.592l.424.65a9.208,9.208,0,0,1-1.7,1.089,4.246,4.246,0,0,1-1.783.329,3.084,3.084,0,0,1-2.558-.921,3.86,3.86,0,0,1-.731-2.485,6.673,6.673,0,0,1-2.638,2.66,7.44,7.44,0,0,1-3.369.731A4.758,4.758,0,0,1,263.356,243.642Zm9.582-3.23v-7.5a2.587,2.587,0,0,1-.957.877c-.409.227-1.031.534-1.871.921a18.109,18.109,0,0,0-2.353,1.162,5.167,5.167,0,0,0-1.549,1.513,4.225,4.225,0,0,0-.651,2.448,3.655,3.655,0,0,0,.877,2.6,2.923,2.923,0,0,0,2.193.884Q271.14,243.32,272.938,240.411Z" transform="translate(-70.563 -60.379)" fill="#f7f5f2"/>
    <path id="Tracé_90" data-name="Tracé 90" d="M59.483,226.918q2.39,2.587,2.39,7.827t-2.39,7.806a8.2,8.2,0,0,1-6.293,2.565,8.215,8.215,0,0,1-6.3-2.565q-2.39-2.565-2.39-7.806t2.39-7.827a8.2,8.2,0,0,1,6.3-2.58A8.186,8.186,0,0,1,59.483,226.918Zm-9.932.541q-1.337,2.346-1.337,7.309c0,3.311.446,5.715,1.337,7.272a4,4,0,0,0,7.309,0q1.337-2.331,1.337-7.272t-1.337-7.309a3.983,3.983,0,0,0-7.309,0Z" transform="translate(-11.977 -60.377)" fill="#f7f5f2"/>
  </g>
</svg>
