<svg xmlns="http://www.w3.org/2000/svg" width="224.982" height="65.352" viewBox="0 0 224.982 65.352">
  <g id="Calque_2" data-name="Calque 2" transform="translate(0)">
    <g id="_01" data-name="01" transform="translate(0)">
      <path id="Tracé_15" data-name="Tracé 15" d="M19.507,0A19.479,19.479,0,0,0,0,19.451V45.9a19.507,19.507,0,0,0,39.013,0V19.451A19.479,19.479,0,0,0,19.507,0ZM37.454,45.9a17.947,17.947,0,0,1-35.894,0V19.451a17.947,17.947,0,0,1,35.894,0Z" transform="translate(0)" fill="#2f4240"/>
      <path id="Tracé_16" data-name="Tracé 16" d="M32.409,9.3c-.194-.17-.4-.334-.588-.5l-.63-.469-.324-.223a16.237,16.237,0,0,0-4.29-2.054q-.765-.235-1.571-.4c-.265-.053-.535-.1-.806-.141l-.406-.059c-.412-.053-.83-.088-1.247-.111h-.841a15.886,15.886,0,0,0-1.677.088,16.234,16.234,0,0,0-5.784,1.7l-.347.188a15.036,15.036,0,0,0-1.353.816l-.324.223a17.092,17.092,0,0,0-1.836,1.479l-.559.557-.53.587A16.219,16.219,0,0,0,7.677,13.2c-.141.223-.271.452-.394.686-.194.346-.371.7-.535,1.062a16.14,16.14,0,0,0-.93,2.64c-.035.129-.065.264-.094.393A16.244,16.244,0,0,0,5.3,21.669h0V48.108a16.388,16.388,0,0,0,32.776,0V21.657a16.25,16.25,0,0,0-3.025-9.476c-.153-.211-.312-.422-.471-.628a7.082,7.082,0,0,0-.5-.587A17.2,17.2,0,0,0,32.409,9.3ZM13.362,35.733a29.36,29.36,0,0,0,3.266,10.045H6.889V28.61A16.446,16.446,0,0,0,13.362,35.733ZM8.654,55.114h7.767l.683.487.541,1.068H9.6a13.735,13.735,0,0,1-.947-1.555Zm-1.765-6.83,3.025,2.159H7.048a14.51,14.51,0,0,1-.159-2.159ZM12.091,52l2.177,1.561H7.9A15.16,15.16,0,0,1,7.383,52ZM17.769,55.049Zm.106-.939-5.1-3.626v-.041H12.72l-4.36-3.11h25.4Zm3.054-8.332H18.422a27.937,27.937,0,0,1-3.336-9.165c-.106-.587-.194-1.226-.259-1.854a1.849,1.849,0,0,1,0-.188l6.079,6.079Zm4.013,0H22.471V40.5l6.09-6.09a1.314,1.314,0,0,1-.035.37c-.065.622-.153,1.238-.259,1.848a27.89,27.89,0,0,1-3.348,9.153Zm-2.471-7.493v-8.5l5.3-5.281a28.088,28.088,0,0,1,.941,7.217q0,.167,0,.334Zm0-10.685V14.176h0a28.064,28.064,0,0,1,4.766,8.666Zm-1.565.164L16.086,22.96a27.928,27.928,0,0,1,4.819-8.8Zm-6.237,4.007a28.129,28.129,0,0,1,.912-7.117l5.325,5.316V38.45l-6.232-6.214C14.668,32.078,14.668,31.926,14.668,31.773Zm-3.79,26.451h7.55l.818,1.555H12.614A15.244,15.244,0,0,1,10.878,58.224Zm9.9,4.641a14.874,14.874,0,0,1-5.72-1.526H20Zm1.842,0-3.748-7.4,17.635-7.487v.164A14.8,14.8,0,0,1,22.624,62.865ZM36.511,45.779H26.7a29.279,29.279,0,0,0,3.278-10.028,16.376,16.376,0,0,0,6.532-7.141ZM34.369,13.995a14.765,14.765,0,0,1-4.19,19.779q.071-1,.071-2.024a29.354,29.354,0,0,0-7.473-19.638l-.282-.317h0q-.382-.417-.777-.81c-.259.264-.518.534-.771.81h0l-.294.323a29.407,29.407,0,0,0-7.544,19.656c0,.669,0,1.326.065,1.983A14.77,14.77,0,0,1,17.628,7.435l.353-.094a14.973,14.973,0,0,1,2.189-.387A14.452,14.452,0,0,1,21.688,6.9a14.9,14.9,0,0,1,2.624.229c.241.041.483.094.724.147.359.082.712.182,1.059.288a14.049,14.049,0,0,1,1.389.475c.218.094.441.188.653.293a13.635,13.635,0,0,1,1.259.681c.306.188.588.381.894.587.194.141.388.282.588.428a15.053,15.053,0,0,1,1.824,1.69c.159.176.312.352.465.534l.224.282c.147.182.288.376.43.587C33.986,13.39,34.18,13.689,34.369,13.995Z" transform="translate(-2.181 -2.207)" fill="#2f4240"/>
      <path id="Tracé_17" data-name="Tracé 17" d="M111.326,42.091q0,1.543.088,2.517h-.706a18.8,18.8,0,0,0-.588-3.52,2.876,2.876,0,0,0-1.295-1.69,5.787,5.787,0,0,0-2.83-.54h-1.942a5.623,5.623,0,0,0-1.618.17,1.075,1.075,0,0,0-.694.692,5.523,5.523,0,0,0-.182,1.69v7.563h2.248a2.353,2.353,0,0,0,2.448-1.707,10.738,10.738,0,0,0,.324-1.76l.094-.587h.706a27.773,27.773,0,0,0-.135,2.887v1.473q0,1.567.182,4.36h-.706c0-.141-.082-.64-.188-1.484a3.012,3.012,0,0,0-.847-1.925,2.712,2.712,0,0,0-1.924-.645h-2.248v7.041a4.213,4.213,0,0,0,.247,1.69,1.317,1.317,0,0,0,.859.71,9.169,9.169,0,0,0,2.007.246v.587c-1.071-.059-2.577-.088-4.531-.088q-2.648,0-3.943.088v-.587a6.148,6.148,0,0,0,1.618-.246,1.1,1.1,0,0,0,.694-.71,5.525,5.525,0,0,0,.182-1.69V41.37a5.525,5.525,0,0,0-.182-1.69,1.1,1.1,0,0,0-.694-.7,6.148,6.148,0,0,0-1.618-.246V38.16q3.019.088,8.932.094c3.019,0,5.166-.035,6.437-.094Q111.326,40.343,111.326,42.091Z" transform="translate(-39.572 -15.77)" fill="#2f4240"/>
      <path id="Tracé_18" data-name="Tracé 18" d="M129.663,56.89a2.3,2.3,0,0,0,.524,1.76,2.724,2.724,0,0,0,1.818.475v.645q-2.836-.153-3.725-.153t-3.731.123V59.1a2.7,2.7,0,0,0,1.818-.475,2.3,2.3,0,0,0,.524-1.76v-15.4a3.29,3.29,0,0,0-.524-2.059,2.222,2.222,0,0,0-1.818-.64V38.12c.636.059,1.277.088,1.912.088a10.03,10.03,0,0,0,3.2-.428Z" transform="translate(-51.26 -15.613)" fill="#2f4240"/>
      <path id="Tracé_19" data-name="Tracé 19" d="M176.119,47.876a4.5,4.5,0,0,1,1.389.8,1.037,1.037,0,0,0,.553.246c.371,0,.588-.452.677-1.355h.712q-.124,1.5-.124,5.222h-.718a7.679,7.679,0,0,0-1.306-3.344,3.346,3.346,0,0,0-2.877-1.32,2.617,2.617,0,0,0-1.818.628,2.185,2.185,0,0,0-.712,1.76,2.4,2.4,0,0,0,.741,1.8,14.824,14.824,0,0,0,2.354,1.76c.182.1.465.276.83.522a25.845,25.845,0,0,1,2.283,1.625,6.126,6.126,0,0,1,1.424,1.572,4.151,4.151,0,0,1,.541,2.124,3.722,3.722,0,0,1-1.53,3.163A6.073,6.073,0,0,1,174.8,64.24a6.324,6.324,0,0,1-2.43-.434,6.176,6.176,0,0,1-1.265-.827.389.389,0,0,0-.277-.123c-.141,0-.271.106-.382.305a2.729,2.729,0,0,0-.265.863h-.706q.124-1.76.124-6.143h.706a10.662,10.662,0,0,0,1.247,4.289A3.3,3.3,0,0,0,174.6,63.6a2.835,2.835,0,0,0,1.907-.71,2.736,2.736,0,0,0,.836-2.206,2.789,2.789,0,0,0-.818-2.03,15.7,15.7,0,0,0-2.666-1.995q-1.512-.951-2.354-1.567a5.439,5.439,0,0,1-1.371-1.508,3.858,3.858,0,0,1-.553-2.089,3.516,3.516,0,0,1,1.295-2.934,5.124,5.124,0,0,1,3.26-1.015A5.274,5.274,0,0,1,176.119,47.876Z" transform="translate(-69.748 -19.648)" fill="#2f4240"/>
      <path id="Tracé_20" data-name="Tracé 20" d="M230.053,38.537a3.809,3.809,0,0,1,1.277,3.022,4.216,4.216,0,0,1-.8,2.57,5.681,5.681,0,0,1-2.124,1.76,41.078,41.078,0,0,1-4.56,1.6,5.245,5.245,0,0,1,2.542,2.1,5.989,5.989,0,0,1,.818,3.116,6.325,6.325,0,0,1-1.142,3.6A8.05,8.05,0,0,1,222.8,59.02a11.32,11.32,0,0,1-4.99,1.027,13.067,13.067,0,0,1-4.972-.939,8.649,8.649,0,0,1-3.654-2.676,6.378,6.378,0,0,1-1.353-4.037,5.755,5.755,0,0,1,1-3.427,7.1,7.1,0,0,1,2.295-2.118,10.178,10.178,0,0,1,2.4-1,5.436,5.436,0,0,1-2.307-1.719,3.7,3.7,0,0,1-.8-2.277,3.273,3.273,0,0,1,.588-1.889,4.17,4.17,0,0,1,1.765-1.414,6.8,6.8,0,0,1,2.819-.54,4.971,4.971,0,0,1,3.207.927,3.23,3.23,0,0,1,.9,1.039,2.383,2.383,0,0,1,.288,1.091,1.459,1.459,0,0,1-.524,1.173,1.768,1.768,0,0,1-1.177.446,1.638,1.638,0,0,1-1.124-.417,1.4,1.4,0,0,1-.477-1.121,1.582,1.582,0,0,1,.465-1.173,1.768,1.768,0,0,1,1.177-.54,1.417,1.417,0,0,0-.789-.686,3.7,3.7,0,0,0-1.553-.293,3.536,3.536,0,0,0-2.589.968,3.591,3.591,0,0,0-.989,2.687,4.582,4.582,0,0,0,1.571,3.52,11.577,11.577,0,0,1,1.912-.188,1.876,1.876,0,0,1,.894.188.587.587,0,0,1,.335.522.487.487,0,0,1-.23.428,1.179,1.179,0,0,1-.63.153,3.038,3.038,0,0,1-1.018-.182c-.347-.123-.759-.288-1.23-.493q-4.007,1.174-4.007,5.034a5.973,5.973,0,0,0,1.077,3.567,6.717,6.717,0,0,0,2.942,2.288,10.872,10.872,0,0,0,4.219.78,11.475,11.475,0,0,0,4.048-.692,6.957,6.957,0,0,0,2.942-1.966,4.4,4.4,0,0,0,1.094-2.934,5.445,5.445,0,0,0-.647-2.488,4.381,4.381,0,0,0-2.454-1.983q-2.4.739-3.531,1.173a6.566,6.566,0,0,0-2,1.121,2.01,2.01,0,0,0-.712,1.555,2.116,2.116,0,0,0,.912,1.76,3.166,3.166,0,0,0,1.924.675,4.006,4.006,0,0,0,1.142-.182q.588-.182.706-.493a2.262,2.262,0,0,1-1.018-.493,1.318,1.318,0,0,1-.43-1.074,1.494,1.494,0,0,1,.477-1.173,1.769,1.769,0,0,1,1.218-.428,1.591,1.591,0,0,1,1.177.458,1.675,1.675,0,0,1,.441,1.174,2.17,2.17,0,0,1-1.136,1.93,4.659,4.659,0,0,1-2.524.71,4.191,4.191,0,0,1-2.666-.909,3.194,3.194,0,0,1-1.177-2.687,3.656,3.656,0,0,1,1.065-2.652,8.1,8.1,0,0,1,3.189-1.784l2.183-.645c1.236-.346,2.26-.651,3.083-.921a21.739,21.739,0,0,0,2.248-.857,5.886,5.886,0,0,0,2.065-1.385,2.4,2.4,0,0,0,.588-1.567,2.784,2.784,0,0,0-1.059-2.194,3.761,3.761,0,0,0-2.513-.909c-.512,0-.824.094-.924.276a1.357,1.357,0,0,1,.63.587,1.674,1.674,0,0,1,.235.81,1.33,1.33,0,0,1-.512,1.074,1.81,1.81,0,0,1-1.218.434,1.768,1.768,0,0,1-1.136-.4,1.383,1.383,0,0,1-.494-1.138,1.684,1.684,0,0,1,1.03-1.614,5.339,5.339,0,0,1,2.354-.5A4.716,4.716,0,0,1,230.053,38.537Z" transform="translate(-85.534 -15.454)" fill="#2f4240"/>
      <path id="Tracé_21" data-name="Tracé 21" d="M273.915,38.776a6.189,6.189,0,0,0-1.618.246,1.11,1.11,0,0,0-.688.7,5.483,5.483,0,0,0-.188,1.69V56.672a5.483,5.483,0,0,0,.188,1.69,1.052,1.052,0,0,0,.688.692,5.652,5.652,0,0,0,1.618.17h2.248a6.288,6.288,0,0,0,2.913-.54,3.188,3.188,0,0,0,1.465-1.76,13.963,13.963,0,0,0,.677-3.468h.683q-.088.951-.088,2.517,0,1.76.212,3.931-2.095-.088-7.061-.088-5.884,0-8.932.088v-.587a6.106,6.106,0,0,0,1.618-.246,1.1,1.1,0,0,0,.718-.733,5.523,5.523,0,0,0,.182-1.69V41.393a5.523,5.523,0,0,0-.182-1.69,1.1,1.1,0,0,0-.694-.7,6.1,6.1,0,0,0-1.618-.246V38.16c.865.059,2.177.094,3.942.094,1.648,0,2.942-.035,3.913-.094Z" transform="translate(-109.489 -15.77)" fill="#2f4240"/>
      <path id="Tracé_22" data-name="Tracé 22" d="M309.09,60.54a3.291,3.291,0,0,0,.524,2.059,2.24,2.24,0,0,0,1.818.645v.645a18.881,18.881,0,0,0-1.907-.094,10.09,10.09,0,0,0-3.207.428V60.6a5.64,5.64,0,0,1-2.095,2.8,5.307,5.307,0,0,1-2.942.892,4.232,4.232,0,0,1-3.207-1.173,3.517,3.517,0,0,1-.783-1.567,10.757,10.757,0,0,1-.235-2.458V51.4a3.255,3.255,0,0,0-.524-2.059,2.216,2.216,0,0,0-1.812-.645v-.645a18.882,18.882,0,0,0,1.906.094,10.112,10.112,0,0,0,3.207-.428V59.772a10.8,10.8,0,0,0,.135,1.889,2.128,2.128,0,0,0,.647,1.173,2.27,2.27,0,0,0,1.553.458,3.407,3.407,0,0,0,2.13-.739,4.918,4.918,0,0,0,1.495-2.007,7.165,7.165,0,0,0,.535-2.811V51.4a3.291,3.291,0,0,0-.524-2.059,2.222,2.222,0,0,0-1.818-.645v-.645a18.964,18.964,0,0,0,1.912.094,10.03,10.03,0,0,0,3.2-.428Z" transform="translate(-121.297 -19.72)" fill="#2f4240"/>
      <path id="Tracé_23" data-name="Tracé 23" d="M340.216,48.7a3.517,3.517,0,0,1,.83,1.537,9.949,9.949,0,0,1,.247,2.488v8.214a2.272,2.272,0,0,0,.524,1.76,2.7,2.7,0,0,0,1.818.475v.645c-1.895-.082-3.125-.123-3.7-.123s-1.724.041-3.448.123v-.645a2.14,2.14,0,0,0,1.589-.475,2.57,2.57,0,0,0,.447-1.76V52.052a5.6,5.6,0,0,0-.494-2.629,2.1,2.1,0,0,0-2-.9,3.69,3.69,0,0,0-2.254.733,4.8,4.8,0,0,0-1.524,2.013,7.228,7.228,0,0,0-.535,2.84v6.818a2.541,2.541,0,0,0,.447,1.76,2.116,2.116,0,0,0,1.583.475V63.8q-2.583-.123-3.448-.123t-3.7.123v-.645a2.724,2.724,0,0,0,1.818-.475,2.3,2.3,0,0,0,.524-1.76V51.33a3.29,3.29,0,0,0-.524-2.059,2.24,2.24,0,0,0-1.818-.645V47.98c.653.065,1.295.094,1.907.094a10.089,10.089,0,0,0,3.207-.428v3.626a5.3,5.3,0,0,1,5.237-3.72,4.3,4.3,0,0,1,3.266,1.15Z" transform="translate(-134.417 -19.646)" fill="#2f4240"/>
      <path id="Tracé_24" data-name="Tracé 24" d="M359.337,63.026a3.684,3.684,0,0,1-.941-2.687,3.4,3.4,0,0,1,.753-2.271,5.63,5.63,0,0,1,1.765-1.414,23.2,23.2,0,0,1,2.724-1.109,14.105,14.105,0,0,0,2.56-1.074,1.49,1.49,0,0,0,.83-1.32v-1.9a3.2,3.2,0,0,0-.753-2.447,3.107,3.107,0,0,0-2.112-.657,3.717,3.717,0,0,0-3.048,1.1,1.937,1.937,0,0,1,1.03.645,1.822,1.822,0,0,1,.418,1.232,1.541,1.541,0,0,1-.494,1.209,1.769,1.769,0,0,1-1.259.446,1.562,1.562,0,0,1-1.295-.534,2.253,2.253,0,0,1-.076-2.535,4.348,4.348,0,0,1,1.059-.986,6.441,6.441,0,0,1,1.883-.857,8.609,8.609,0,0,1,2.495-.34,5.17,5.17,0,0,1,3.631,1.138,3.448,3.448,0,0,1,1.036,1.7A10.94,10.94,0,0,1,369.8,53v8.537a2.124,2.124,0,0,0,.218,1.109.807.807,0,0,0,.742.334,1.41,1.41,0,0,0,.688-.17,3.873,3.873,0,0,0,.694-.475l.341.522a7.416,7.416,0,0,1-1.377.874,3.427,3.427,0,0,1-1.436.264,2.487,2.487,0,0,1-2.059-.739,3.092,3.092,0,0,1-.588-1.995A5.365,5.365,0,0,1,364.9,63.4a6.005,6.005,0,0,1-2.713.587A3.838,3.838,0,0,1,359.337,63.026Zm7.714-2.593v-6.02a2.081,2.081,0,0,1-.771.7c-.33.182-.83.428-1.506.739a14.6,14.6,0,0,0-1.906.933A4.155,4.155,0,0,0,361.62,58a3.383,3.383,0,0,0-.524,1.966,2.928,2.928,0,0,0,.677,2.089,2.357,2.357,0,0,0,1.765.71,4.137,4.137,0,0,0,3.5-2.335Z" transform="translate(-147.501 -19.642)" fill="#2f4240"/>
      <path id="Tracé_25" data-name="Tracé 25" d="M152.773,49.6q1.924,2.077,1.924,6.284t-1.924,6.266a7.264,7.264,0,0,1-10.133,0q-1.93-2.059-1.93-6.266t1.936-6.284a7.235,7.235,0,0,1,10.133,0Zm-8,.434A12.25,12.25,0,0,0,143.7,55.9a12.1,12.1,0,0,0,1.077,5.838,3.223,3.223,0,0,0,5.855,0,12.133,12.133,0,0,0,1.077-5.838,12.345,12.345,0,0,0-1.077-5.867,3.211,3.211,0,0,0-5.855,0Z" transform="translate(-57.911 -19.643)" fill="#2f4240"/>
    </g>
  </g>
</svg>
