<svg id="Calque_2" data-name="Calque 2" xmlns="http://www.w3.org/2000/svg" width="328.834" height="550.838" viewBox="0 0 328.834 550.838">
  <g id="_01" data-name="01" transform="translate(0)">
    <path id="Tracé_15" data-name="Tracé 15" d="M164.417,0C73.612,0,0,73.4,0,163.946V386.892c0,90.545,73.612,163.946,164.417,163.946s164.417-73.4,164.417-163.946V163.946C328.834,73.4,255.222,0,164.417,0ZM315.691,386.892c0,83.307-67.728,150.84-151.274,150.84S13.143,470.2,13.143,386.892V163.946c0-83.307,67.728-150.84,151.274-150.84s151.274,67.533,151.274,150.84Z" transform="translate(0)" fill="#f7f5f2"/>
    <path id="Tracé_16" data-name="Tracé 16" d="M233.8,38.723c-1.637-1.434-3.373-2.819-4.96-4.2l-5.307-3.956L220.8,28.683a136.861,136.861,0,0,0-36.157-17.31Q178.2,9.4,171.4,7.961c-2.232-.445-4.513-.841-6.795-1.187l-3.422-.495c-3.472-.445-6.993-.742-10.515-.94h-7.092a133.9,133.9,0,0,0-14.135.742A136.836,136.836,0,0,0,80.689,20.424l-2.926,1.583a126.744,126.744,0,0,0-11.408,6.874L63.627,30.76A144.06,144.06,0,0,0,48.153,43.223l-4.712,4.7-4.464,4.946A136.709,136.709,0,0,0,25.338,71.561c-1.19,1.879-2.282,3.808-3.323,5.786C20.378,80.265,18.89,83.233,17.5,86.3a136.041,136.041,0,0,0-7.836,22.255c-.3,1.088-.546,2.226-.794,3.314A136.914,136.914,0,0,0,5.3,142.975h0V365.823c0,76.069,61.843,137.734,138.13,137.734s138.13-61.666,138.13-137.734V142.876a136.97,136.97,0,0,0-25.493-79.871c-1.29-1.78-2.629-3.561-3.968-5.292a59.69,59.69,0,0,0-4.216-4.946A145.011,145.011,0,0,0,233.8,38.723ZM73.249,261.521a247.473,247.473,0,0,0,27.527,84.668H18.691V201.481A138.619,138.619,0,0,0,73.249,261.521ZM33.571,424.873H99.04l5.753,4.1,4.563,9h-67.8a115.772,115.772,0,0,1-7.985-13.106ZM18.691,367.306l25.493,18.2H20.031a122.3,122.3,0,0,1-1.339-18.2Zm43.845,31.305,18.351,13.155H27.222a127.774,127.774,0,0,1-4.365-13.155ZM110.4,424.329Zm.893-7.913-43-30.564v-.346h-.446L31.091,359.294H245.156Zm25.741-70.227H115.9a235.472,235.472,0,0,1-28.122-77.25c-.893-4.946-1.637-10.336-2.182-15.628a15.58,15.58,0,0,1,0-1.583l51.235,51.236Zm33.826,0H150.027v-44.51l51.334-51.335a11.078,11.078,0,0,1-.3,3.116c-.546,5.242-1.29,10.435-2.182,15.579a235.079,235.079,0,0,1-28.221,77.151Zm-20.831-63.155V211.373l44.638-44.51a236.744,236.744,0,0,1,7.936,60.831q0,1.41,0,2.819Zm0-90.059V79.82h0A236.543,236.543,0,0,1,190.2,152.866Zm-13.193,1.385-40.621-40.5a235.4,235.4,0,0,1,40.621-74.184ZM84.26,228.138a237.091,237.091,0,0,1,7.688-59.99l44.886,44.807v71.463L84.31,232.045C84.26,230.71,84.26,229.424,84.26,228.138ZM52.319,451.084h63.634l6.894,13.106H66.95A128.485,128.485,0,0,1,52.319,451.084ZM135.792,490.2a125.37,125.37,0,0,1-48.209-12.858h41.662Zm15.524,0-31.594-62.413,148.645-63.105v1.385c-.128,65.664-51.331,119.965-117.051,124.134ZM268.367,346.189h-82.68a246.783,246.783,0,0,0,27.626-84.52,138.028,138.028,0,0,0,55.054-60.188Zm-18.054-267.9A124.455,124.455,0,0,1,215,245q.6-8.457.6-17.062A247.416,247.416,0,0,0,152.606,62.412l-2.381-2.671h0Q147,56.23,143.678,52.916c-2.182,2.226-4.365,4.5-6.5,6.825h0l-2.48,2.72A247.864,247.864,0,0,0,71.116,228.138c0,5.638,0,11.177.546,16.716A124.493,124.493,0,0,1,109.208,23l2.976-.791a126.2,126.2,0,0,1,18.45-3.264,121.813,121.813,0,0,1,12.8-.445,125.584,125.584,0,0,1,22.121,1.929c2.034.346,4.067.791,6.1,1.236,3.026.692,6,1.533,8.928,2.423a118.42,118.42,0,0,1,11.705,4.006c1.835.791,3.72,1.583,5.505,2.473A114.929,114.929,0,0,1,208.4,36.3c2.579,1.583,4.96,3.215,7.539,4.946,1.637,1.187,3.273,2.374,4.96,3.61A126.881,126.881,0,0,1,236.278,59.1c1.339,1.484,2.629,2.967,3.918,4.5l1.885,2.374c1.24,1.533,2.43,3.165,3.621,4.946C247.09,73.193,248.727,75.716,250.314,78.287Z" transform="translate(20.987 21.069)" fill="#f7f5f2"/>
  </g>
</svg>
